<svg xmlns="http://www.w3.org/2000/svg" xmlns:xlink="http://www.w3.org/1999/xlink" width="500" zoomAndPan="magnify" viewBox="0 0 375 374.999991" height="500" preserveAspectRatio="xMidYMid meet" version="1.0"><defs><clipPath id="4bea9dbb9a"><path d="M 117.675781 121 L 244 121 L 244 191 L 117.675781 191 Z M 117.675781 121 " clip-rule="nonzero"/></clipPath><clipPath id="3aab313f12"><path d="M 119 147 L 257.175781 147 L 257.175781 221 L 119 221 Z M 119 147 " clip-rule="nonzero"/></clipPath></defs><g clip-path="url(#4bea9dbb9a)"><path fill="#ffffff" d="M 117.730469 126.394531 L 118.597656 136.421875 L 234.972656 190.816406 L 243.210938 185.0625 L 242.46875 176.210938 L 125.042969 121.289062 Z M 117.730469 126.394531 " fill-opacity="1" fill-rule="nonzero"/></g><path fill="#ffffff" d="M 238.875 134.441406 L 238.070312 125.25 C 237.574219 119.589844 234.105469 114.636719 228.964844 112.222656 L 182.84375 90.65625 C 177.699219 88.242188 171.660156 88.769531 167.011719 92.019531 L 159.457031 97.277344 Z M 238.875 134.441406 " fill-opacity="1" fill-rule="nonzero"/><g clip-path="url(#3aab313f12)"><path fill="#ffffff" d="M 249.097656 217.765625 L 257.121094 212.167969 L 119.589844 147.867188 L 121.230469 166.742188 L 233.238281 219.128906 C 238.378906 221.542969 244.421875 221.015625 249.097656 217.765625 Z M 249.097656 217.765625 " fill-opacity="1" fill-rule="nonzero"/></g><path fill="#ffffff" d="M 122.191406 178.191406 L 122.875 186.238281 C 123.371094 191.898438 126.839844 196.851562 131.980469 199.265625 L 178.101562 220.832031 C 183.246094 223.242188 189.285156 222.71875 193.929688 219.46875 L 200.558594 214.859375 Z M 122.191406 178.191406 " fill-opacity="1" fill-rule="nonzero"/><path fill="#ffffff" d="M 150.039062 103.871094 L 134.457031 114.730469 L 241.476562 164.761719 L 239.835938 145.890625 Z M 150.039062 103.871094 " fill-opacity="1" fill-rule="nonzero"/></svg>